<svg width="600" height="600" viewBox="0 0 100 100" fill="none" xmlns="http://www.w3.org/2000/svg">
  <defs>
    <filter id="organic-warp" x="-50%" y="-50%" width="200%" height="200%">
      <feTurbulence type="fractalNoise" baseFrequency="0.02" numOctaves="4" result="noise" seed="5"/>
      <feDisplacementMap in="SourceGraphic" in2="noise" scale="12" xChannelSelector="R" yChannelSelector="G" />
    </filter>
    
    <pattern id="topo-pattern" x="0" y="0" width="100" height="100" patternUnits="userSpaceOnUse">
        <g fill="none" stroke="#e0e0e0" stroke-width="0.5">
            <path d="M-10,10 Q10,20 30,10 Q50,0 70,10 Q90,20 110,10" />
            <path d="M-10,30 Q10,40 30,30 Q50,20 70,30 Q90,40 110,30" />
            <path d="M-10,50 Q10,60 30,50 Q50,40 70,50 Q90,60 110,50" />
            <path d="M-10,70 Q10,80 30,70 Q50,60 70,70 Q90,80 110,70" />
            <path d="M-10,90 Q10,100 30,90 Q50,80 70,90 Q90,100 110,90" />
            <path d="M10,-10 Q20,10 10,30 Q0,50 10,70 Q20,90 10,110" />
            <path d="M30,-10 Q40,10 30,30 Q20,50 30,70 Q40,90 30,110" />
            <path d="M50,-10 Q60,10 50,30 Q40,50 50,70 Q60,90 50,110" />
            <path d="M70,-10 Q80,10 70,30 Q60,50 70,70 Q80,90 70,110" />
            <path d="M90,-10 Q100,10 90,30 Q80,50 90,70 Q100,90 90,110" />
             <circle cx="20" cy="20" r="15" />
             <circle cx="80" cy="80" r="20" />
             <circle cx="80" cy="20" r="10" />
             <circle cx="20" cy="80" r="12" />
             <circle cx="50" cy="50" r="25" opacity="0.5"/>
        </g>
    </pattern>
  </defs>

  <rect x="0" y="0" width="100" height="100" fill="url(#topo-pattern)" opacity="0.6" />
  
  <g filter="url(#organic-warp)" stroke-linecap="round" fill="none">
      <circle cx="50" cy="50" r="46" stroke="#E40303" stroke-width="9" stroke-dasharray="48 240" stroke-dashoffset="0" />
    <circle cx="50" cy="50" r="46" stroke="#FF8C00" stroke-width="9" stroke-dasharray="48 240" stroke-dashoffset="-48" />
    <circle cx="50" cy="50" r="46" stroke="#FFED00" stroke-width="9" stroke-dasharray="48 240" stroke-dashoffset="-96" />
    <circle cx="50" cy="50" r="46" stroke="#008026" stroke-width="9" stroke-dasharray="48 240" stroke-dashoffset="-144" />
    <circle cx="50" cy="50" r="46" stroke="#24408E" stroke-width="9" stroke-dasharray="48 240" stroke-dashoffset="-192" />
    <circle cx="50" cy="50" r="46" stroke="#732982" stroke-width="9" stroke-dasharray="48 240" stroke-dashoffset="-240" />
  </g>
  
  <path 
    filter="url(#organic-warp)"
    d="M50 25C40.059 25 32 32.835 32 42.5C32 55.625 50 75 50 75C50 75 68 55.625 68 42.5C68 32.835 59.941 25 50 25ZM50 49C46.134 49 43 45.866 43 42C43 38.134 46.134 35 50 35C53.866 35 57 38.134 57 42C57 45.866 53.866 49 50 49Z" 
    fill="#2D3436"
  />
</svg>
